# xmcd CD database file
#
# Track frame offsets:
#	150
#	26033
#	48644
#
# Disc length: 954 seconds
#
# Revision: 0
# Processed by: cddbd v1.5.2PL0 Copyright (c) Steve Scherf et al.
# Submitted via: CDex 1.70beta2
#
DISCID=2203b803
DTITLE=Rio - ホタル
DYEAR=2008
DGENRE=Blues
TTITLE0=ホタル
TTITLE1=stardust Cafe
TTITLE2=リトル
EXTD=YEAR: 2008
EXTT0=
EXTT1=
EXTT2=
PLAYORDER=
